<?xml version="1.0" standalone="no"?>
<!DOCTYPE svg PUBLIC "-//W3C//DTD SVG 20010904//EN"
 "http://www.w3.org/TR/2001/REC-SVG-20010904/DTD/svg10.dtd">
<svg version="1.0" xmlns="http://www.w3.org/2000/svg"
 width="185.000000pt" height="185.000000pt" viewBox="0 0 185.000000 185.000000"
 preserveAspectRatio="xMidYMid meet">
<metadata>
Created by potrace 1.11, written by Peter Selinger 2001-2013
</metadata>
<g transform="translate(0.000000,185.000000) scale(0.100000,-0.100000)"
fill="#000000" stroke="none">
<path d="M850 1822 c-113 -8 -266 -58 -375 -121 -354 -204 -528 -621 -419
-1001 9 -30 18 -63 20 -73 4 -22 90 -193 104 -207 3 -3 19 -23 35 -45 134
-180 360 -313 580 -343 49 -6 231 -6 265 1 265 53 487 196 621 403 56 86 108
206 126 294 17 85 22 239 9 315 -3 22 -8 52 -11 67 -7 48 -57 180 -87 232 -16
28 -34 61 -40 74 -6 12 -15 22 -20 22 -4 0 -8 6 -8 14 0 26 -209 226 -237 226
-6 0 -13 3 -15 8 -6 14 -123 70 -198 95 -96 32 -238 48 -350 39z"/>
</g>
</svg>
